# xmcd
#
# Track frame offsets: 
#        150
#        13327
#        31527
#        48557
#        85605
#        109915
#        133802
#        159437
#        183740
#        210295
#
# Disc length: 3067 seconds
#
# Revision: 0
# Processed by: cddbd v1.5PL3 Copyright (c) Steve Scherf et al.
# Submitted via: ExactAudioCopy v0.95a4
#
DISCID=7d0bf90a
DTITLE=Blue Tribe - Lucky
DYEAR=1900
DGENRE=Blues
TTITLE0=Help Me
TTITLE1=Standing In The Rain
TTITLE2=Crossroads
TTITLE3=Cold, Cold Feeling
TTITLE4=Waiting For Your Love
TTITLE5=After All These Years
TTITLE6=My Music
TTITLE7=Lucky
TTITLE8=Lay, Lady, Lay
TTITLE9=Calling Card
EXTD=
EXTT0=
EXTT1=
EXTT2=
EXTT3=
EXTT4=
EXTT5=
EXTT6=
EXTT7=
EXTT8=
EXTT9=
PLAYORDER=
